<svg xmlns="http://www.w3.org/2000/svg" viewBox="0 0 800 1000"><path fill="#fa5b3d" d="M0 0h800v1000H0z"/><circle cx="400" cy="438" r="288" fill="#f3c442"/><circle cx="400" cy="438" r="224" fill="#152e35"/><path fill="#ed553d" d="M396 146h20l72 586-91 80-82-95z"/><path fill="#f3c442" d="M390 372h20v170h-20zM310 448h180v20H310z"/><circle cx="400" cy="437" r="57" fill="#f7f0df"/><path fill="#8cc9a6" d="M0 761q179-167 399-48t401-26v313H0z"/><path fill="#193941" d="M0 858q233-131 460-39t340-13v194H0z"/><text x="48" y="75" fill="#fff4d9" font-family="sans-serif" font-size="18" letter-spacing="5">AFFICHE / CULTURE</text><text x="48" y="826" fill="#fff4d9" font-family="sans-serif" font-weight="700" font-size="62">FESTIVAL</text><text x="48" y="896" fill="#fff4d9" font-family="sans-serif" font-weight="700" font-size="62">DES ARTS</text><text x="50" y="951" fill="#fff4d9" font-family="sans-serif" font-size="20" letter-spacing="5">MUSIQUE · SCENE · RENCONTRES</text></svg>